<svg xmlns="http://www.w3.org/2000/svg" viewBox="0 0 757.61 159.87"><defs><style>.cls-1{fill:#b8953c;}.cls-2{fill:#1d1d1b;}</style></defs><g id="Capa_2" data-name="Capa 2"><g id="Capa_1-2" data-name="Capa 1"><path class="cls-1" d="M336.63,153.34V130.23h-.89l-.14.25a15.26,15.26,0,0,1-8.15,6.66l-.33.12v1h4.56v15c0,2.21,0,3.67-2,4.67l-.28.13v.91h9.24v-.87l-.23-.14c-1.76-1.14-1.75-2.59-1.74-4.58"/><path class="cls-1" d="M363.63,131.45c-6.11,0-10.72,4.32-10.72,10.05a8.51,8.51,0,0,0,8.75,8.66,9.14,9.14,0,0,0,3.36-.62l.12,0,4.18-5.11c-.67,6.14-6.21,10.82-11.57,11.93l-.18,0-2.84,3.52,1.21-.15a24.44,24.44,0,0,0,12.32-4.94,15.75,15.75,0,0,0,6.08-12.06c0-6.53-4.51-11.27-10.71-11.27m3.64,14a7.87,7.87,0,0,1-3.92,1.19c-3.23,0-5.49-2.43-5.49-5.92a5.24,5.24,0,0,1,5.25-5.45c4.12,0,6.28,4,6.28,7.93,0,.34,0,.69-.05,1Z"/><path class="cls-1" d="M403.42,153.38a16.67,16.67,0,0,1-7.83,1.75l-4.35-.33,8.15-12a9.28,9.28,0,0,0,1.72-5c0-3.62-3.77-6.35-8.78-6.35a19.58,19.58,0,0,0-5.29.81l-.21.06L384,138h1.05l.12-.09a12.36,12.36,0,0,1,6.54-2.43c1.92,0,3.91,1.21,3.91,3.24,0,1.5-1.08,3-2,4.31-.19.26-.37.52-.54.77l-10.44,15.11h19.29l2.62-5.61h-1Z"/><path class="cls-1" d="M428,157.92c-1.76-1.14-1.75-2.59-1.74-4.58v-23.1h-.89l-.14.24a15.26,15.26,0,0,1-8.15,6.66l-.33.12v1h4.56v15c0,2.21,0,3.67-2.05,4.67L419,158v.91h9.23v-.87Z"/><path class="cls-1" d="M757.61,85.51a.14.14,0,0,0-.14-.14.14.14,0,0,0-.13.09h0c-.41,1-.82,2.09-1.29,3.06a41.87,41.87,0,0,1-2.73,4.88s-1.18,1.7-1.27,1.82a47.84,47.84,0,0,1-6.28,6.87c-7.8,7.11-20.54,14.65-41.37,20-11.42,2.93-21.91,5.2-32.29,6.86a305.41,305.41,0,0,1-33.29,3.38l-33.53,1.58-58.62,2.74c-19.74,1.34-41.26,3.49-56.48,6.75l-2.52.53c-9,1.85-16.67,5-25.51,9.74a96.09,96.09,0,0,0-8.88,5.38h0a.14.14,0,0,0-.06.12.13.13,0,0,0,.14.13.1.1,0,0,0,.07,0h0a101.11,101.11,0,0,1,9.06-5.15,92.28,92.28,0,0,1,27.75-8.87l.3,0c18.75-3.13,37.14-4.17,56.91-5,0,0,31.2-1,57.83-1.89,15.45-.54,29.46-1.13,34.84-1.46a315.62,315.62,0,0,0,64.14-10.55c27.38-7.52,40.86-19.46,47.52-29a38.94,38.94,0,0,0,5.62-11.23c.07-.21.12-.39.19-.6h0a0,0,0,0,0,0,0"/><path class="cls-2" d="M144.67,68.59h0Z"/><path class="cls-1" d="M241.24,8.56C230.68,2.32,217-1.17,205,1.38,173.77,6.78,156.72,43,172,72.44,179.35,86.57,191.48,97,207,99.36c16.46,2.45,34.94-6,45.08-19.61v0c15.4-21,12.39-57.53-10.79-71.17m11.7,58.27a42.26,42.26,0,0,1-8.07,12.9h0C236,89.45,223.32,93.85,210.72,94q0-43.9.12-87.8c13.28-.43,28.15,4.09,36.74,15.35,9.41,12.31,11.16,30.85,5.36,45.29"/><path class="cls-1" d="M145.61,68.76a1.55,1.55,0,0,0-.9-.16h0c-1.83.21-3.25,3.57-3.25,3.57-4.65,10.68-10,14.51-14.93,17.16-7.31,4-15.68,5.33-23.82,5.62V8.46A41.46,41.46,0,0,1,131,16.27a32.62,32.62,0,0,1,9.82,12.27c1.63,3.78,6.76,1.79,4.89-1.93-4.42-8.82-10.37-15.38-18.85-19.28a51.14,51.14,0,0,0-29.27-4C62.93,8.24,46.8,49.69,66.44,79.75,75.1,93,89.34,101.18,104.8,100.51c15.12-.65,31.32-6.17,39.33-20.75h0a43.88,43.88,0,0,0,3.37-7.94,2.63,2.63,0,0,0-1.9-3.06"/><path class="cls-1" d="M370.23,50.61c3.2-19.13-7-34.84-23.71-41.77-12.4-5.16-25.28-4.51-38.3-4.51H279.78V98.77h40.53V78.2c9.35,5.81,18.57,12,28.09,17.46,3,1.8,16.77,8.42,17.82,3.13.74-3.72-3.67-2.11-11.92-6.22-5.52-2.75-10.79-6.44-16-9.71,16-3.21,29-14.84,32-32.25M330.76,78.19l-10.45-6.57V10c11.43,0,23.05,1.76,32.63,8.87,11.7,8.68,15.1,23.25,10.29,37.25-5,14.5-18.81,20.81-32.47,22.12"/><rect class="cls-1" x="657.33" y="4.33" width="39.1" height="94.08"/><path class="cls-1" d="M632.2,3.23A2.6,2.6,0,0,0,629.37,6V47.46L547.08,0V94.78c0,3.63,5.51,3.66,5.51,0V55.13l82.29,46.76V6a2.54,2.54,0,0,0-2.68-2.75"/><path class="cls-1" d="M424.72,10.81c2.59-4.81,9.87-2.14,13.74-1a30.69,30.69,0,0,1,10.69,5.49c2.62,2.27,4.43,4.56,6.18,3.4,3.89-2.55-1.24-6.39-2.88-7.76-4.87-4.08-11-6.39-17-7.55a55.51,55.51,0,0,0-33.05,3.73c-28.42,12.18-3.64,47.07,8.21,61.81,4.55,5.65,9.48,11.19,13.49,17.3,3.21,4.89,3.06,7.87-3.39,8.37a31.48,31.48,0,0,1-20.94-6.27,20.15,20.15,0,0,1-5.52-6.62c-1.63-3.17-6.06-.52-5.11,2,4.54,12.16,21,16.71,32,17.32,14.53.82,35.26-4,39.27-21.35h0c3.77-16.28-9.34-30.31-19.11-41-4.69-5.16-21.18-19.32-16.54-27.92"/><polygon class="cls-1" points="484.21 79.75 484.21 98.4 523.31 98.4 523.31 4.33 484.21 4.33 484.21 79.75"/><path class="cls-1" d="M304.33,159.07h0a93.87,93.87,0,0,0-8.88-5.37c-8.84-4.72-16.56-7.9-25.51-9.75l-2.52-.53c-15.22-3.26-36.75-5.41-56.49-6.75l-58.61-2.74-33.53-1.58A305.41,305.41,0,0,1,85.5,129c-10.38-1.65-20.88-3.92-32.29-6.86-20.83-5.36-33.57-12.91-41.37-20a48.41,48.41,0,0,1-6.28-6.88L4.29,93.4a41.87,41.87,0,0,1-2.73-4.88c-.47-1-.88-2-1.29-3.06h0a.14.14,0,0,0-.13-.09A.14.14,0,0,0,0,85.5s0,0,0,0H0c.06.2.12.39.19.59A38.94,38.94,0,0,0,5.82,97.37c6.65,9.55,20.13,21.49,47.52,29a314.24,314.24,0,0,0,64.13,10.55c5.39.34,19.4.92,34.85,1.46,26.63.94,57.83,1.9,57.83,1.9,19.77.78,38.16,1.82,56.91,5l.3,0a92,92,0,0,1,27.75,8.86,102.52,102.52,0,0,1,9.06,5.15h0a.11.11,0,0,0,.08,0,.14.14,0,0,0,.08-.26"/></g></g></svg>